<svg version="1.1" id="Layer_1" xmlns="http://www.w3.org/2000/svg" xmlns:xlink="http://www.w3.org/1999/xlink" x="0px" y="0px"
	 width="100%" viewBox="0 0 906 335" enable-background="new 0 0 906 335" xml:space="preserve">
<path fill="#FFFEFE" opacity="1.000000" stroke="none" 
	d="
M581.000000,336.000000 
	C387.333344,336.000000 194.166672,336.000000 1.000000,336.000000 
	C1.000000,224.333328 1.000000,112.666664 1.000000,1.000000 
	C303.000000,1.000000 605.000000,1.000000 907.000000,1.000000 
	C907.000000,112.666664 907.000000,224.333328 907.000000,336.000000 
	C798.500000,336.000000 690.000000,336.000000 581.000000,336.000000 
M30.837860,109.144112 
	C30.837860,109.144112 30.837664,109.276558 30.837664,109.276558 
	C30.837664,109.276558 30.884706,108.893837 31.517433,108.968277 
	C31.681690,108.648689 31.845947,108.329102 32.767666,108.417137 
	C50.135857,102.983192 66.042999,108.841850 81.858910,115.405609 
	C82.261543,114.923462 82.664177,114.441307 83.066811,113.959152 
	C76.639671,105.342178 70.212532,96.725204 63.417538,87.615036 
	C81.321907,85.225052 88.348541,97.901741 95.588898,110.059227 
	C118.000923,96.210007 123.756752,94.725388 129.506638,101.375305 
	C124.409927,104.983559 119.316956,108.589165 114.223984,112.194763 
	C123.051689,111.735085 131.608536,107.999382 141.177521,113.028557 
	C132.223770,115.980927 124.351692,118.576622 115.938744,121.350670 
	C136.471054,131.731613 141.394989,136.855667 138.802505,145.099213 
	C135.099991,143.562012 131.411575,142.030670 127.723167,140.499313 
	C136.206070,149.933960 136.489868,150.343094 136.823059,154.961121 
	C126.447678,149.669785 116.129089,144.407410 105.810493,139.145035 
	C108.471252,151.099838 112.411026,161.688339 106.911545,173.033920 
	C103.624146,163.103409 100.336739,153.172913 97.049339,143.242401 
	C96.551727,143.350082 96.054123,143.457764 95.556511,143.565460 
	C92.008827,174.059433 90.394409,204.618271 92.499619,234.734009 
	C105.220711,236.057953 117.381813,237.323639 129.821838,238.618332 
	C129.857315,237.903442 129.990356,236.444885 129.992462,234.986130 
	C130.009521,223.156723 130.011703,211.327240 129.997528,199.497818 
	C129.991379,194.365128 128.516693,193.191528 123.309204,194.125000 
	C120.057655,194.707855 116.805595,195.842651 113.564117,195.806290 
	C107.630249,195.739761 101.704048,194.989243 95.058479,194.467758 
	C96.270622,192.305847 97.414444,189.189560 99.448219,186.845444 
	C104.972763,180.477905 112.711105,178.129333 120.625679,176.631287 
	C135.335739,173.847015 149.524094,175.251740 162.452011,183.393265 
	C166.796951,186.129562 170.070297,189.941086 170.172470,195.513550 
	C158.090652,195.513550 146.583008,195.513550 134.820114,195.513550 
	C134.820114,208.563431 135.224426,220.396927 134.661957,232.184280 
	C134.346298,238.799454 135.863617,242.923828 142.430954,245.504730 
	C148.866150,248.033676 154.484360,253.324921 161.035919,254.737015 
	C176.288971,258.024536 191.876907,259.786499 207.362442,261.925568 
	C209.004776,262.152435 211.373962,261.276611 212.555054,260.075592 
	C242.594467,229.529221 254.740067,192.775024 245.154572,151.146042 
	C233.308914,99.701355 199.929077,68.087975 147.872543,58.777668 
	C108.000397,51.646530 73.161499,64.167404 44.248249,92.484016 
	C39.578815,97.057106 36.052158,102.797050 31.482018,108.092911 
	C31.310436,108.389832 31.138853,108.686752 30.837860,109.144112 
M75.704720,123.196518 
	C74.486710,122.363647 73.376869,121.106178 72.033844,120.764000 
	C59.487713,117.567482 46.883675,114.598129 34.338863,111.396652 
	C30.949884,110.531769 28.946571,111.199188 27.108332,114.441345 
	C4.692050,153.977646 3.788520,193.895737 25.053656,234.068817 
	C30.267925,243.919373 36.851765,252.961441 45.840439,260.834381 
	C49.653900,251.249832 56.895603,245.298065 65.860031,242.179337 
	C72.168915,239.984467 75.039749,236.478943 75.297821,230.200333 
	C75.304512,230.037659 75.383507,229.878967 75.419289,229.716324 
	C81.616463,201.550568 87.113747,173.278778 88.290611,144.356827 
	C88.358376,142.691483 88.299393,141.021011 88.299393,139.352921 
	C79.370369,148.002853 76.207077,159.233276 71.511253,170.861130 
	C61.887817,159.336243 66.809639,148.619308 70.852226,137.306885 
	C57.739895,144.254852 49.366310,154.918152 40.715389,166.279358 
	C37.272614,158.448822 40.717560,153.184219 44.094521,148.078445 
	C51.732471,136.530319 63.168549,129.723709 75.704720,123.196518 
M490.988342,141.852722 
	C490.986725,144.685242 490.983795,147.517761 490.983643,150.350281 
	C490.981598,182.508224 491.027954,214.666321 490.912537,246.823868 
	C490.899292,250.506714 491.555023,252.113953 495.792969,252.113266 
	C513.085083,252.110474 515.195679,250.151871 515.205750,232.605881 
	C515.208740,227.375900 515.206177,222.145935 515.206177,216.451385 
	C517.212097,216.919083 518.337524,217.094742 519.406311,217.443710 
	C535.296570,222.631668 547.578918,216.549133 554.388672,205.033401 
	C564.667786,187.650818 564.140015,169.341400 556.430054,151.314667 
	C551.169434,139.014648 541.026428,134.129471 527.884338,137.068954 
	C522.387207,138.298508 517.332703,141.507004 511.449554,144.091370 
	C507.875580,138.375427 501.449249,137.095123 494.551880,137.592087 
	C493.290955,137.682953 492.174042,139.772079 490.988342,141.852722 
M843.381226,212.136490 
	C847.578369,214.301132 851.674683,216.701492 856.004944,218.555084 
	C859.405151,220.010529 861.320190,217.346603 862.651306,214.815170 
	C864.246216,211.781769 867.256226,209.246902 865.271851,204.903992 
	C863.671509,201.401398 862.437927,197.435684 862.281982,193.624680 
	C861.833313,182.657333 862.309631,171.652267 861.865540,160.684570 
	C861.386353,148.853592 854.598267,140.638046 843.001160,137.966217 
	C827.461548,134.386093 812.833923,139.283508 797.096985,143.507004 
	C798.541748,148.355942 799.780090,152.747009 801.166748,157.090729 
	C802.249207,160.481659 804.365295,160.707153 807.727844,159.863602 
	C814.443787,158.178802 821.316284,156.474884 828.180664,156.202225 
	C835.273804,155.920471 838.498596,161.652664 836.400024,167.890396 
	C829.042847,168.615280 821.797363,168.599915 814.917358,170.177948 
	C804.598267,172.544785 797.337708,179.155487 795.212891,189.802567 
	C793.195496,199.912048 795.541565,209.018555 804.270874,215.593536 
	C813.223083,222.336365 827.235046,221.490875 837.849487,213.763687 
	C839.280396,212.722031 841.186279,212.333023 843.381226,212.136490 
M374.468201,124.430359 
	C374.625519,120.637749 374.877228,116.845940 374.909027,113.052277 
	C374.932617,110.239471 373.544952,109.077103 370.523712,109.090775 
	C346.713776,109.198448 322.902863,109.201233 299.092957,109.090096 
	C295.938080,109.075363 294.951111,110.421989 294.953033,113.207237 
	C294.955902,117.360077 295.032532,121.516891 294.878967,125.664642 
	C294.734436,129.567230 296.392303,130.812927 300.265869,130.653122 
	C307.344879,130.361130 314.444550,130.570053 322.082581,130.570053 
	C322.082581,159.781494 322.082581,188.667053 322.082581,217.997742 
	C330.803711,217.997742 338.964325,217.997742 347.592194,217.997742 
	C347.592194,188.306229 347.592194,159.435425 347.592194,130.085007 
	C354.021179,130.085007 360.049042,130.602966 365.918640,129.863846 
	C368.801422,129.500854 371.390747,126.807411 374.468201,124.430359 
M594.372131,150.123688 
	C590.916382,136.692047 580.014404,133.066772 566.041138,140.967239 
	C568.349854,149.027603 570.673828,157.169769 573.014526,165.307114 
	C577.017639,179.223633 581.036926,193.135483 585.037842,207.052643 
	C586.917419,213.590622 590.687500,218.063660 597.951233,218.184738 
	C604.751526,218.298111 611.567993,218.228165 618.351868,217.818237 
	C619.571472,217.744537 621.318848,215.819366 621.724060,214.428864 
	C628.616211,190.781097 635.306946,167.074661 642.133057,143.407440 
	C642.854919,140.904800 642.294556,139.390045 639.752747,139.132553 
	C634.813599,138.632187 629.853271,138.321732 624.896057,138.026749 
	C621.355957,137.816086 619.718140,139.442505 618.922485,143.092484 
	C615.200684,160.166870 611.152344,177.170151 607.199402,194.193909 
	C606.918457,195.403839 606.466553,196.574051 605.708008,198.995255 
	C601.808716,182.097000 598.209045,166.497101 594.372131,150.123688 
M58.812408,272.688019 
	C110.136902,309.779938 177.046936,296.073242 206.796524,265.500488 
	C154.864761,265.500488 102.876625,265.500488 49.877399,265.500488 
	C53.152088,268.140381 55.699314,270.193817 58.812408,272.688019 
M754.706787,100.983803 
	C750.087402,100.175079 749.226440,102.448021 749.249146,106.631691 
	C749.407166,135.757767 749.258301,164.885468 749.411011,194.011581 
	C749.435120,198.615646 750.037109,203.328369 751.171936,207.787231 
	C752.658569,213.628174 756.919495,217.427139 762.912048,217.835083 
	C770.620300,218.359863 778.391296,217.962769 787.257080,217.962769 
	C786.621521,211.748581 786.295349,207.010162 785.530762,202.343613 
	C785.370667,201.366959 783.691284,200.113525 782.546753,199.908096 
	C774.288879,198.425934 773.744080,197.953018 773.734192,189.748840 
	C773.705994,166.280899 773.732117,142.812912 773.718140,119.344933 
	C773.708740,103.485435 771.236084,100.988258 754.706787,100.983803 
M701.244019,107.698143 
	C701.244202,136.148926 701.209717,164.599808 701.284485,193.050400 
	C701.294922,197.025406 701.484802,201.066589 702.220459,204.958252 
	C703.493225,211.690826 707.155090,217.072830 714.367920,217.715958 
	C722.208008,218.415024 730.158691,217.874573 739.088867,217.874573 
	C738.513855,211.890274 738.265686,207.294952 737.503479,202.786514 
	C737.312561,201.657120 735.586853,200.153488 734.366760,199.934387 
	C726.272949,198.480942 725.627563,197.913895 725.617676,189.707626 
	C725.589355,166.248245 725.620178,142.788803 725.599792,119.329414 
	C725.585999,103.383179 723.083618,101.112854 707.004639,100.880562 
	C702.375000,100.813683 700.490967,102.157852 701.244019,107.698143 
M403.388611,216.739578 
	C403.460846,202.245697 403.543427,187.751877 403.601349,173.257935 
	C403.634003,165.081741 410.081604,159.498550 418.267853,160.597382 
	C425.551788,161.575104 425.562592,161.578552 427.873413,154.394638 
	C428.382660,152.811600 428.835968,151.206635 429.229156,149.590851 
	C432.026428,138.095230 430.755707,136.780945 418.759796,137.616425 
	C409.955078,138.229645 404.593445,143.383514 400.880920,150.407364 
	C398.003082,147.335495 395.616119,144.033401 392.527710,141.634201 
	C383.733826,134.802750 377.492645,136.695145 373.770569,147.108734 
	C373.313904,148.386322 373.766144,150.163315 374.233826,151.562958 
	C375.474579,155.276077 377.960632,158.856857 378.154877,162.583908 
	C378.795929,174.884064 378.665863,187.225372 378.784790,199.551346 
	C378.842255,205.507385 378.794708,211.464432 378.794708,218.889633 
	C387.263153,218.409897 395.123169,217.964630 403.388611,216.739578 
M651.201416,156.088715 
	C657.838074,157.143433 657.759216,162.408386 657.822632,167.204178 
	C657.992371,180.022812 657.881897,192.845154 657.882568,205.666031 
	C657.882751,209.620193 657.882568,213.574371 657.882568,218.074646 
	C666.453125,218.074646 674.447632,218.074646 682.656921,218.074646 
	C682.656921,196.016205 682.994568,174.726822 682.490906,153.457367 
	C682.289185,144.941437 676.711304,139.186172 669.069702,138.348816 
	C663.154419,137.700623 657.098022,138.058350 651.129456,138.403320 
	C649.844971,138.477554 647.744507,140.314468 647.611450,141.515732 
	C647.176392,145.443115 647.297485,149.466599 647.623901,153.418503 
	C647.701294,154.355637 649.415039,155.157623 651.201416,156.088715 
M454.881836,218.730881 
	C460.469269,218.730881 466.056671,218.730881 471.803955,218.730881 
	C471.803955,195.562256 472.155548,173.642303 471.599915,151.745377 
	C471.422180,144.740677 466.445831,139.926270 459.270569,138.482239 
	C456.376495,137.899796 453.319214,138.018372 450.335632,138.009476 
	C435.898651,137.966461 433.711731,141.014084 437.683838,155.488754 
	C446.149933,157.214981 447.150543,158.444824 447.203674,167.575836 
	C447.249176,175.395752 447.213135,183.216141 447.213165,191.036331 
	C447.213196,199.822418 447.213196,208.608505 447.213196,217.704559 
	C449.761658,218.058289 451.869019,218.350784 454.881836,218.730881 
M673.883972,126.616669 
	C675.727173,125.221481 678.548401,124.202843 679.254150,122.369736 
	C683.689758,110.849220 678.773987,103.909973 666.663696,104.005287 
	C655.291016,104.094788 651.426025,108.963181 653.425598,120.218285 
	C654.147888,124.283623 656.298035,126.560974 660.223755,126.802139 
	C664.493652,127.064430 668.793762,126.835304 673.883972,126.616669 
M450.379120,104.680740 
	C448.316864,105.586983 445.175232,105.947571 444.390594,107.499695 
	C441.828125,112.568413 441.292786,118.553978 444.236389,123.312332 
	C445.697571,125.674377 450.327911,126.724358 453.667694,127.102051 
	C457.356232,127.519180 461.222137,126.578781 464.981110,126.027344 
	C466.048859,125.870705 467.836029,125.085381 467.894958,124.457214 
	C468.381042,119.274422 469.074005,114.014412 468.629364,108.870712 
	C468.255493,104.545380 463.707214,104.915970 460.643311,104.419777 
	C457.581879,103.923981 454.361176,104.411865 450.379120,104.680740 
z"/>
<path fill="#FD531B" opacity="1.000000" stroke="none" 
	d="
M31.997253,107.997620 
	C36.052158,102.797050 39.578815,97.057106 44.248249,92.484016 
	C73.161499,64.167404 108.000397,51.646530 147.872543,58.777668 
	C199.929077,68.087975 233.308914,99.701355 245.154572,151.146042 
	C254.740067,192.775024 242.594467,229.529221 212.555054,260.075592 
	C211.373962,261.276611 209.004776,262.152435 207.362442,261.925568 
	C191.876907,259.786499 176.288971,258.024536 161.035919,254.737015 
	C154.484360,253.324921 148.866150,248.033676 142.430954,245.504730 
	C135.863617,242.923828 134.346298,238.799454 134.661957,232.184280 
	C135.224426,220.396927 134.820114,208.563431 134.820114,195.513550 
	C146.583008,195.513550 158.090652,195.513550 170.172470,195.513550 
	C170.070297,189.941086 166.796951,186.129562 162.452011,183.393265 
	C149.524094,175.251740 135.335739,173.847015 120.625679,176.631287 
	C112.711105,178.129333 104.972763,180.477905 99.448219,186.845444 
	C97.414444,189.189560 96.270622,192.305847 95.058479,194.467758 
	C101.704048,194.989243 107.630249,195.739761 113.564117,195.806290 
	C116.805595,195.842651 120.057655,194.707855 123.309204,194.125000 
	C128.516693,193.191528 129.991379,194.365128 129.997528,199.497818 
	C130.011703,211.327240 130.009521,223.156723 129.992462,234.986130 
	C129.990356,236.444885 129.857315,237.903442 129.821838,238.618332 
	C117.381813,237.323639 105.220711,236.057953 92.499619,234.734009 
	C90.394409,204.618271 92.008827,174.059433 95.556511,143.565460 
	C96.054123,143.457764 96.551727,143.350082 97.049339,143.242401 
	C100.336739,153.172913 103.624146,163.103409 106.911545,173.033920 
	C112.411026,161.688339 108.471252,151.099838 105.810493,139.145035 
	C116.129089,144.407410 126.447678,149.669785 136.823059,154.961121 
	C136.489868,150.343094 136.206070,149.933960 127.723167,140.499313 
	C131.411575,142.030670 135.099991,143.562012 138.802505,145.099213 
	C141.394989,136.855667 136.471054,131.731613 115.938744,121.350670 
	C124.351692,118.576622 132.223770,115.980927 141.177521,113.028557 
	C131.608536,107.999382 123.051689,111.735085 114.223984,112.194763 
	C119.316956,108.589165 124.409927,104.983559 129.506638,101.375305 
	C123.756752,94.725388 118.000923,96.210007 95.588898,110.059227 
	C88.348541,97.901741 81.321907,85.225052 63.417538,87.615036 
	C70.212532,96.725204 76.639671,105.342178 83.066811,113.959152 
	C82.664177,114.441307 82.261543,114.923462 81.858910,115.405609 
	C66.042999,108.841850 50.135857,102.983192 32.384186,108.208893 
	C32.000702,108.000641 31.997255,107.997620 31.997253,107.997620 
z"/>
<path fill="#FD541D" opacity="1.000000" stroke="none" 
	d="
M75.448532,123.456467 
	C63.168549,129.723709 51.732471,136.530319 44.094521,148.078445 
	C40.717560,153.184219 37.272614,158.448822 40.715389,166.279358 
	C49.366310,154.918152 57.739895,144.254852 70.852226,137.306885 
	C66.809639,148.619308 61.887817,159.336243 71.511253,170.861130 
	C76.207077,159.233276 79.370369,148.002853 88.299393,139.352921 
	C88.299393,141.021011 88.358376,142.691483 88.290611,144.356827 
	C87.113747,173.278778 81.616463,201.550568 75.419289,229.716324 
	C75.383507,229.878967 75.304512,230.037659 75.297821,230.200333 
	C75.039749,236.478943 72.168915,239.984467 65.860031,242.179337 
	C56.895603,245.298065 49.653900,251.249832 45.840439,260.834381 
	C36.851765,252.961441 30.267925,243.919373 25.053656,234.068817 
	C3.788520,193.895737 4.692050,153.977646 27.108332,114.441345 
	C28.946571,111.199188 30.949884,110.531769 34.338863,111.396652 
	C46.883675,114.598129 59.487713,117.567482 72.033844,120.764000 
	C73.376869,121.106178 74.486710,122.363647 75.448532,123.456467 
z"/>
<path fill="#FD541D" opacity="1.000000" stroke="none" 
	d="
M490.989502,141.395752 
	C492.174042,139.772079 493.290955,137.682953 494.551880,137.592087 
	C501.449249,137.095123 507.875580,138.375427 511.449554,144.091370 
	C517.332703,141.507004 522.387207,138.298508 527.884338,137.068954 
	C541.026428,134.129471 551.169434,139.014648 556.430054,151.314667 
	C564.140015,169.341400 564.667786,187.650818 554.388672,205.033401 
	C547.578918,216.549133 535.296570,222.631668 519.406311,217.443710 
	C518.337524,217.094742 517.212097,216.919083 515.206177,216.451385 
	C515.206177,222.145935 515.208740,227.375900 515.205750,232.605881 
	C515.195679,250.151871 513.085083,252.110474 495.792969,252.113266 
	C491.555023,252.113953 490.899292,250.506714 490.912537,246.823868 
	C491.027954,214.666321 490.981598,182.508224 490.983643,150.350281 
	C490.983795,147.517761 490.986725,144.685242 490.989502,141.395752 
M533.808167,160.903076 
	C531.453857,156.678055 527.985840,155.132263 523.341370,156.694153 
	C519.314270,158.048431 515.304260,159.702347 515.224731,164.811844 
	C515.072083,174.622635 515.118713,184.438324 515.253357,194.249619 
	C515.270874,195.521866 515.949829,197.241592 516.914551,197.972046 
	C524.626892,203.811646 532.683472,201.097229 534.778809,191.666428 
	C536.998230,181.677017 537.372009,171.572037 533.808167,160.903076 
z"/>
<path fill="#FD541D" opacity="1.000000" stroke="none" 
	d="
M843.126709,211.889160 
	C841.186279,212.333023 839.280396,212.722031 837.849487,213.763687 
	C827.235046,221.490875 813.223083,222.336365 804.270874,215.593536 
	C795.541565,209.018555 793.195496,199.912048 795.212891,189.802567 
	C797.337708,179.155487 804.598267,172.544785 814.917358,170.177948 
	C821.797363,168.599915 829.042847,168.615280 836.400024,167.890396 
	C838.498596,161.652664 835.273804,155.920471 828.180664,156.202225 
	C821.316284,156.474884 814.443787,158.178802 807.727844,159.863602 
	C804.365295,160.707153 802.249207,160.481659 801.166748,157.090729 
	C799.780090,152.747009 798.541748,148.355942 797.096985,143.507004 
	C812.833923,139.283508 827.461548,134.386093 843.001160,137.966217 
	C854.598267,140.638046 861.386353,148.853592 861.865540,160.684570 
	C862.309631,171.652267 861.833313,182.657333 862.281982,193.624680 
	C862.437927,197.435684 863.671509,201.401398 865.271851,204.903992 
	C867.256226,209.246902 864.246216,211.781769 862.651306,214.815170 
	C861.320190,217.346603 859.405151,220.010529 856.004944,218.555084 
	C851.674683,216.701492 847.578369,214.301132 843.126709,211.889160 
M823.333496,185.539185 
	C822.258423,186.534164 820.918030,187.359955 820.156311,188.554703 
	C817.461853,192.780960 818.637207,198.998047 822.306641,200.848022 
	C826.689758,203.057770 836.046021,200.786148 836.855408,196.809998 
	C837.626770,193.020477 837.021545,188.950745 837.021545,183.939850 
	C832.450867,184.378494 828.256287,184.781052 823.333496,185.539185 
z"/>
<path fill="#FD541D" opacity="1.000000" stroke="none" 
	d="
M374.290527,124.799484 
	C371.390747,126.807411 368.801422,129.500854 365.918640,129.863846 
	C360.049042,130.602966 354.021179,130.085007 347.592194,130.085007 
	C347.592194,159.435425 347.592194,188.306229 347.592194,217.997742 
	C338.964325,217.997742 330.803711,217.997742 322.082581,217.997742 
	C322.082581,188.667053 322.082581,159.781494 322.082581,130.570053 
	C314.444550,130.570053 307.344879,130.361130 300.265869,130.653122 
	C296.392303,130.812927 294.734436,129.567230 294.878967,125.664642 
	C295.032532,121.516891 294.955902,117.360077 294.953033,113.207237 
	C294.951111,110.421989 295.938080,109.075363 299.092957,109.090096 
	C322.902863,109.201233 346.713776,109.198448 370.523712,109.090775 
	C373.544952,109.077103 374.932617,110.239471 374.909027,113.052277 
	C374.877228,116.845940 374.625519,120.637749 374.290527,124.799484 
z"/>
<path fill="#FD551F" opacity="1.000000" stroke="none" 
	d="
M594.490723,150.510437 
	C598.209045,166.497101 601.808716,182.097000 605.708008,198.995255 
	C606.466553,196.574051 606.918457,195.403839 607.199402,194.193909 
	C611.152344,177.170151 615.200684,160.166870 618.922485,143.092484 
	C619.718140,139.442505 621.355957,137.816086 624.896057,138.026749 
	C629.853271,138.321732 634.813599,138.632187 639.752747,139.132553 
	C642.294556,139.390045 642.854919,140.904800 642.133057,143.407440 
	C635.306946,167.074661 628.616211,190.781097 621.724060,214.428864 
	C621.318848,215.819366 619.571472,217.744537 618.351868,217.818237 
	C611.567993,218.228165 604.751526,218.298111 597.951233,218.184738 
	C590.687500,218.063660 586.917419,213.590622 585.037842,207.052643 
	C581.036926,193.135483 577.017639,179.223633 573.014526,165.307114 
	C570.673828,157.169769 568.349854,149.027603 566.041138,140.967239 
	C580.014404,133.066772 590.916382,136.692047 594.490723,150.510437 
z"/>
<path fill="#FD561F" opacity="1.000000" stroke="none" 
	d="
M58.529476,272.467651 
	C55.699314,270.193817 53.152088,268.140381 49.877399,265.500488 
	C102.876625,265.500488 154.864761,265.500488 206.796524,265.500488 
	C177.046936,296.073242 110.136902,309.779938 58.529476,272.467651 
z"/>
<path fill="#FD5822" opacity="1.000000" stroke="none" 
	d="
M755.176208,100.983765 
	C771.236084,100.988258 773.708740,103.485435 773.718140,119.344933 
	C773.732117,142.812912 773.705994,166.280899 773.734192,189.748840 
	C773.744080,197.953018 774.288879,198.425934 782.546753,199.908096 
	C783.691284,200.113525 785.370667,201.366959 785.530762,202.343613 
	C786.295349,207.010162 786.621521,211.748581 787.257080,217.962769 
	C778.391296,217.962769 770.620300,218.359863 762.912048,217.835083 
	C756.919495,217.427139 752.658569,213.628174 751.171936,207.787231 
	C750.037109,203.328369 749.435120,198.615646 749.411011,194.011581 
	C749.258301,164.885468 749.407166,135.757767 749.249146,106.631691 
	C749.226440,102.448021 750.087402,100.175079 755.176208,100.983765 
z"/>
<path fill="#FD551F" opacity="1.000000" stroke="none" 
	d="
M701.244141,107.224136 
	C700.490967,102.157852 702.375000,100.813683 707.004639,100.880562 
	C723.083618,101.112854 725.585999,103.383179 725.599792,119.329414 
	C725.620178,142.788803 725.589355,166.248245 725.617676,189.707626 
	C725.627563,197.913895 726.272949,198.480942 734.366760,199.934387 
	C735.586853,200.153488 737.312561,201.657120 737.503479,202.786514 
	C738.265686,207.294952 738.513855,211.890274 739.088867,217.874573 
	C730.158691,217.874573 722.208008,218.415024 714.367920,217.715958 
	C707.155090,217.072830 703.493225,211.690826 702.220459,204.958252 
	C701.484802,201.066589 701.294922,197.025406 701.284485,193.050400 
	C701.209717,164.599808 701.244202,136.148926 701.244141,107.224136 
z"/>
<path fill="#FD541D" opacity="1.000000" stroke="none" 
	d="
M403.185883,217.129471 
	C395.123169,217.964630 387.263153,218.409897 378.794708,218.889633 
	C378.794708,211.464432 378.842255,205.507385 378.784790,199.551346 
	C378.665863,187.225372 378.795929,174.884064 378.154877,162.583908 
	C377.960632,158.856857 375.474579,155.276077 374.233826,151.562958 
	C373.766144,150.163315 373.313904,148.386322 373.770569,147.108734 
	C377.492645,136.695145 383.733826,134.802750 392.527710,141.634201 
	C395.616119,144.033401 398.003082,147.335495 400.880920,150.407364 
	C404.593445,143.383514 409.955078,138.229645 418.759796,137.616425 
	C430.755707,136.780945 432.026428,138.095230 429.229156,149.590851 
	C428.835968,151.206635 428.382660,152.811600 427.873413,154.394638 
	C425.562592,161.578552 425.551788,161.575104 418.267853,160.597382 
	C410.081604,159.498550 403.634003,165.081741 403.601349,173.257935 
	C403.543427,187.751877 403.460846,202.245697 403.185883,217.129471 
z"/>
<path fill="#FD551F" opacity="1.000000" stroke="none" 
	d="
M650.788757,156.055237 
	C649.415039,155.157623 647.701294,154.355637 647.623901,153.418503 
	C647.297485,149.466599 647.176392,145.443115 647.611450,141.515732 
	C647.744507,140.314468 649.844971,138.477554 651.129456,138.403320 
	C657.098022,138.058350 663.154419,137.700623 669.069702,138.348816 
	C676.711304,139.186172 682.289185,144.941437 682.490906,153.457367 
	C682.994568,174.726822 682.656921,196.016205 682.656921,218.074646 
	C674.447632,218.074646 666.453125,218.074646 657.882568,218.074646 
	C657.882568,213.574371 657.882751,209.620193 657.882568,205.666031 
	C657.881897,192.845154 657.992371,180.022812 657.822632,167.204178 
	C657.759216,162.408386 657.838074,157.143433 650.788757,156.055237 
z"/>
<path fill="#FD551F" opacity="1.000000" stroke="none" 
	d="
M454.429108,218.687088 
	C451.869019,218.350784 449.761658,218.058289 447.213196,217.704559 
	C447.213196,208.608505 447.213196,199.822418 447.213165,191.036331 
	C447.213135,183.216141 447.249176,175.395752 447.203674,167.575836 
	C447.150543,158.444824 446.149933,157.214981 437.683838,155.488754 
	C433.711731,141.014084 435.898651,137.966461 450.335632,138.009476 
	C453.319214,138.018372 456.376495,137.899796 459.270569,138.482239 
	C466.445831,139.926270 471.422180,144.740677 471.599915,151.745377 
	C472.155548,173.642303 471.803955,195.562256 471.803955,218.730881 
	C466.056671,218.730881 460.469269,218.730881 454.429108,218.687088 
z"/>
<path fill="#FD561F" opacity="1.000000" stroke="none" 
	d="
M673.482300,126.718552 
	C668.793762,126.835304 664.493652,127.064430 660.223755,126.802139 
	C656.298035,126.560974 654.147888,124.283623 653.425598,120.218285 
	C651.426025,108.963181 655.291016,104.094788 666.663696,104.005287 
	C678.773987,103.909973 683.689758,110.849220 679.254150,122.369736 
	C678.548401,124.202843 675.727173,125.221481 673.482300,126.718552 
z"/>
<path fill="#FD5620" opacity="1.000000" stroke="none" 
	d="
M450.794708,104.574631 
	C454.361176,104.411865 457.581879,103.923981 460.643311,104.419777 
	C463.707214,104.915970 468.255493,104.545380 468.629364,108.870712 
	C469.074005,114.014412 468.381042,119.274422 467.894958,124.457214 
	C467.836029,125.085381 466.048859,125.870705 464.981110,126.027344 
	C461.222137,126.578781 457.356232,127.519180 453.667694,127.102051 
	C450.327911,126.724358 445.697571,125.674377 444.236389,123.312332 
	C441.292786,118.553978 441.828125,112.568413 444.390594,107.499695 
	C445.175232,105.947571 448.316864,105.586983 450.794708,104.574631 
z"/>
<path fill="#FD531B" opacity="1.000000" stroke="none" 
	d="
M30.884706,108.893837 
	C30.884706,108.893837 30.837664,109.276558 30.837664,109.276558 
	C30.837664,109.276558 30.837860,109.144112 30.884527,109.040436 
	C30.931194,108.936768 30.884706,108.893837 30.884706,108.893837 
z"/>
<path fill="#FD531B" opacity="1.000000" stroke="none" 
	d="
M32.005455,108.005081 
	C31.845947,108.329102 31.681690,108.648689 31.201069,108.931061 
	C30.884706,108.893837 30.931194,108.936768 30.949232,108.960220 
	C31.138853,108.686752 31.310436,108.389832 31.739635,108.045265 
	C31.997255,107.997620 32.000702,108.000641 32.005455,108.005081 
z"/>
<path fill="#FFF9F7" opacity="1.000000" stroke="none" 
	d="
M533.958496,161.265930 
	C537.372009,171.572037 536.998230,181.677017 534.778809,191.666428 
	C532.683472,201.097229 524.626892,203.811646 516.914551,197.972046 
	C515.949829,197.241592 515.270874,195.521866 515.253357,194.249619 
	C515.118713,184.438324 515.072083,174.622635 515.224731,164.811844 
	C515.304260,159.702347 519.314270,158.048431 523.341370,156.694153 
	C527.985840,155.132263 531.453857,156.678055 533.958496,161.265930 
z"/>
<path fill="#FFF7F5" opacity="1.000000" stroke="none" 
	d="
M823.697632,185.361389 
	C828.256287,184.781052 832.450867,184.378494 837.021545,183.939850 
	C837.021545,188.950745 837.626770,193.020477 836.855408,196.809998 
	C836.046021,200.786148 826.689758,203.057770 822.306641,200.848022 
	C818.637207,198.998047 817.461853,192.780960 820.156311,188.554703 
	C820.918030,187.359955 822.258423,186.534164 823.697632,185.361389 
z"/>
</svg>